#!OML:ASF H:\Male1\Project 1\Capture day 1\Session 1\Male1.ASF
:FULLY-SPECIFIED
:DEGREES
320
root 15.1281 15.4081 3.58775 176.37 -31.9034 179.912
lowerback 4.33081 0.816199 0.154893
upperback 2.71124 0.984711 -1.47286
thorax 0.384004 0.459992 -1.63578
lowerneck -7.55558 3.88363 8.23998
upperneck 6.47664 4.71949 -5.16144
head 3.47856 2.31561 -2.64713
rclavicle -2.29596e-014 -7.15625e-015
rhumerus 60.8346 50.4522 -32.1496
rradius 98.5118
rwrist -41.8392
rhand 31.5636 5.88943
rfingers 7.12502
rthumb 55.107 -12.1716
lclavicle -2.29596e-014 -7.15625e-015
lhumerus 77.9165 -54.2935 11.2159
lradius 108.32
lwrist 17.4828
lhand -14.924 16.0052
lfingers 7.12502
lthumb 11.2381 45.6842
rfemur -2.263 14.0173 22.502
rtibia 23.7612
rfoot -29.1551 -30.0384
rtoes -16.3538
lfemur -2.0116 -18.1995 -22.0598
ltibia 24.4236
lfoot -24.2161 27.7005
ltoes -2.27708
321
root 15.127 15.4092 3.58704 176.324 -31.9104 180.03
lowerback 4.50357 0.854049 0.216954
upperback 2.57673 1.04126 -1.4009
thorax 0.151037 0.489602 -1.6027
lowerneck -7.42542 3.84222 8.13926
upperneck 6.45711 4.68457 -5.16327
head 3.4466 2.2972 -2.63599
rclavicle 2.00524e-014 -7.95139e-016
rhumerus 60.6626 50.6137 -32.1214
rradius 98.5056
rwrist -41.8573
rhand 31.297 5.62409
rfingers 7.12502
rthumb 54.869 -12.6089
lclavicle 2.00524e-014 -7.95139e-016
lhumerus 77.7939 -54.6037 11.4926
lradius 108.294
lwrist 17.4688
lhand -14.9231 15.8728
lfingers 7.12502
lthumb 11.2389 45.5517
rfemur -2.23526 14.0129 22.6085
rtibia 23.7128
rfoot -29.2168 -30.0169
rtoes -16.058
lfemur -2.02292 -18.2817 -21.9678
ltibia 24.4465
lfoot -24.5397 27.5942
ltoes -1.29364
322
root 15.126 15.4108 3.58703 176.293 -31.8862 180.18
lowerback 4.33155 0.911317 0.463467
upperback 2.66813 1.12608 -1.42701
thorax 0.34896 0.535501 -1.76765
lowerneck -7.44892 3.80465 8.13754
upperneck 6.27601 4.62831 -5.15054
head 3.39151 2.26878 -2.63575
rclavicle 3.0911e-014 -3.97569e-015
rhumerus 60.7564 50.3938 -32.0307
rradius 98.4815
rwrist -42.0092
rhand 30.83 5.34847
rfingers 7.12502
rthumb 54.4516 -13.1796
lclavicle 3.0911e-014 -3.97569e-015
lhumerus 77.9622 -54.5191 11.4341
lradius 108.284
lwrist 17.5558
lhand -14.8365 15.8336
lfingers 7.12502
lthumb 11.3225 45.508
rfemur -2.22617 14.0654 22.7297
rtibia 23.634
rfoot -29.4624 -29.8224
rtoes -15.0372
lfemur -2.08267 -18.374 -21.8333
ltibia 24.4925
lfoot -24.9655 27.4562
ltoes 0.345443
323
root 15.1262 15.4124 3.58772 176.277 -31.8628 180.281
lowerback 4.31962 0.871158 0.617817
upperback 2.6623 1.07774 -1.48847
thorax 0.35235 0.513541 -1.91548
lowerneck -7.43788 3.86323 8.35021
upperneck 6.21176 4.68864 -5.2121
head 3.38087 2.30098 -2.68554
rclavicle 1.10077e-014 6.75868e-015
rhumerus 61.1206 50.4056 -31.9489
rradius 98.4642
rwrist -42.2994
rhand 30.4305 5.17474
rfingers 7.12502
rthumb 54.0936 -13.5998
lclavicle 1.10077e-014 6.75868e-015
lhumerus 77.7322 -54.4581 11.4361
lradius 108.355
lwrist 17.6709
lhand -14.9137 16.0226
lfingers 7.12502
lthumb 11.248 45.701
rfemur -2.22037 14.1245 22.8112
rtibia 23.5489
rfoot -29.5784 -29.7397
rtoes -14.5595
lfemur -2.14646 -18.4539 -21.7408
ltibia 24.5437
lfoot -24.7271 27.7051
ltoes -0.515303
324
root 15.1267 15.4128 3.5887 176.277 -31.8506 180.296
lowerback 4.43933 0.8663 0.652346
upperback 2.59004 1.07357 -1.50803
thorax 0.212329 0.51146 -1.95739
lowerneck -7.37957 3.87189 8.37052
upperneck 6.19171 4.69743 -5.15386
head 3.36498 2.30891 -2.67148
rclavicle -5.9039e-014 -1.03368e-014
rhumerus 61.188 50.5018 -31.9681
rradius 98.3872
rwrist -42.5535
rhand 30.458 5.36381
rfingers 7.12502
rthumb 54.1182 -13.394
lclavicle -5.9039e-014 -1.03368e-014
lhumerus 77.5614 -54.5016 11.5256
lradius 108.41
lwrist 17.7711
lhand -15.0754 16.1731
lfingers 7.12502
lthumb 11.092 45.86
rfemur -2.19899 14.1249 22.8224
rtibia 23.4734
rfoot -29.5173 -29.7712
rtoes -14.6814
lfemur -2.1812 -18.493 -21.7271
ltibia 24.588
lfoot -24.4448 27.9173
ltoes -1.85435
325
root 15.1267 15.4142 3.58956 176.282 -31.8454 180.309
lowerback 4.33608 0.915376 0.699882
upperback 2.66695 1.13934 -1.49376
thorax 0.352163 0.545312 -1.96958
lowerneck -7.4025 3.82454 8.20934
upperneck 6.05782 4.63528 -5.0097
head 3.31677 2.27935 -2.60559
rclavicle -8.39865e-015 1.19271e-015
rhumerus 61.118 50.3452 -31.9818
rradius 98.2232
rwrist -42.7969
rhand 30.7603 5.58456
rfingers 7.12502
rthumb 54.3892 -12.9869
lclavicle -8.39865e-015 1.19271e-015
lhumerus 77.7169 -54.3791 11.4808
lradius 108.453
lwrist 17.834
lhand -15.2424 16.191
lfingers 7.12502
lthumb 10.931 45.8864
rfemur -2.19737 14.0374 22.8198
rtibia 23.4233
rfoot -29.4497 -29.7451
rtoes -14.9756
lfemur -2.21384 -18.4759 -21.7069
ltibia 24.614
lfoot -24.5188 27.8863
ltoes -1.67204
326
root 15.127 15.4159 3.58978 176.274 -31.8502 180.352
lowerback 4.36678 0.91164 0.749336
upperback 2.62385 1.13774 -1.49219
thorax 0.291726 0.545224 -1.99661
lowerneck -7.38805 3.79505 8.18708
upperneck 6.08912 4.59243 -4.92031
head 3.31842 2.26172 -2.57727
rclavicle -1.67725e-014 -2.66371e-014
rhumerus 60.9761 50.3788 -32.2154
rradius 98.0044
rwrist -43.1055
rhand 30.9752 5.61408
rfingers 7.12502
rthumb 54.5815 -12.823
lclavicle -1.67725e-014 -2.66371e-014
lhumerus 77.6733 -54.4047 11.4472
lradius 108.576
lwrist 17.9212
lhand -15.4697 16.4813
lfingers 7.12502
lthumb 10.7117 46.1882
rfemur -2.21099 13.978 22.8535
rtibia 23.4089
rfoot -29.3824 -29.8112
rtoes -15.4207
lfemur -2.24962 -18.3616 -21.6389
ltibia 24.6137
lfoot -24.5245 27.7574
ltoes -1.38833
327
root 15.127 15.4166 3.58934 176.261 -31.8474 180.371
lowerback 4.38655 0.885512 0.765567
upperback 2.5852 1.1047 -1.50182
thorax 0.240202 0.528982 -2.01501
lowerneck -7.37822 3.78041 8.20212
upperneck 6.15474 4.56582 -4.83381
head 3.33328 2.25303 -2.55457
rclavicle -2.00524e-014 -2.38542e-015
rhumerus 60.9103 50.4516 -32.469
rradius 97.675
rwrist -43.4987
rhand 30.9365 5.20473
rfingers 7.12502
rthumb 54.5469 -13.2567
lclavicle -2.00524e-014 -2.38542e-015
lhumerus 77.4694 -54.3665 11.4456
lradius 108.797
lwrist 18.2621
lhand -15.7887 17.0694
lfingers 7.12502
lthumb 10.404 46.792
rfemur -2.21982 13.9494 22.8813
rtibia 23.4222
rfoot -29.1109 -30.0686
rtoes -16.0421
lfemur -2.24608 -18.2986 -21.6062
ltibia 24.5951
lfoot -24.4246 27.7126
ltoes -1.61117
328
root 15.1255 15.4161 3.58855 176.267 -31.832 180.344
lowerback 4.28124 0.862617 0.791059
upperback 2.62066 1.07452 -1.52225
thorax 0.335043 0.514891 -2.04709
lowerneck -7.40755 3.77346 8.15144
upperneck 6.16281 4.54955 -4.71058
head 3.33544 2.24866 -2.50918
rclavicle 8.9304e-014 -2.34566e-014
rhumerus 60.9179 50.4393 -32.6294
rradius 97.1054
rwrist -44.047
rhand 30.7304 5.08711
rfingers 7.12502
rthumb 54.3624 -13.5029
lclavicle 8.9304e-014 -2.34566e-014
lhumerus 77.2439 -54.1867 11.4345
lradius 109.114
lwrist 18.9273
lhand -15.9375 17.7376
lfingers 7.12502
lthumb 10.2604 47.4673
rfemur -2.23346 13.8572 22.8468
rtibia 23.4539
rfoot -28.7706 -30.1933
rtoes -16.7699
lfemur -2.20482 -18.3283 -21.6447
ltibia 24.5677
lfoot -24.1303 27.881
ltoes -2.52881
329
root 15.1244 15.4146 3.58725 176.315 -31.8254 180.235
lowerback 4.16562 0.863751 0.750076
upperback 2.65294 1.07387 -1.55251
thorax 0.432435 0.514792 -2.053
lowerneck -7.47645 3.75016 8.15891
upperneck 6.2037 4.5107 -4.68586
head 3.35616 2.23014 -2.50375
rclavicle 5.34234e-015 8.34896e-015
rhumerus 60.7936 50.332 -32.869
rradius 96.321
rwrist -44.6092
rhand 30.4949 5.00941
rfingers 7.12502
rthumb 54.1514 -13.7258
lclavicle 5.34234e-015 8.34896e-015
lhumerus 77.1107 -53.92 11.3278
lradius 109.535
lwrist 19.8545
lhand -15.9547 18.3624
lfingers 7.12502
lthumb 10.2439 48.093
rfemur -2.22427 13.8225 22.7277
rtibia 23.4762
rfoot -28.8617 -30.0182
rtoes -16.8984
lfemur -2.17555 -18.2579 -21.7433
ltibia 24.5489
lfoot -23.8528 27.9403
ltoes -3.33465
